M48
INCH,TZ
T1C0.0315
T2C0.0394
%
G90
G05
T1
X11500Y-14000
X11500Y-14984
X11500Y-10000
X11500Y-13000
T2
X13000Y-10000
X13000Y-11000
X13000Y-12000
X13000Y-13000
X13000Y-14000
X13000Y-15000
X13000Y-16000
X13000Y-17000
X10000Y-10000
X10000Y-11000
X10000Y-12000
X10000Y-13000
X10000Y-14000
X10000Y-15000
X10000Y-16000
X10000Y-17000
T0
M30
