G04 #@! TF.GenerationSoftware,KiCad,Pcbnew,(5.1.2)-1*
G04 #@! TF.CreationDate,2019-10-01T23:09:42-06:00*
G04 #@! TF.ProjectId,signalinkUniversalJumperModule,7369676e-616c-4696-9e6b-556e69766572,rev?*
G04 #@! TF.SameCoordinates,Original*
G04 #@! TF.FileFunction,Legend,Top*
G04 #@! TF.FilePolarity,Positive*
%FSLAX46Y46*%
G04 Gerber Fmt 4.6, Leading zero omitted, Abs format (unit mm)*
G04 Created by KiCad (PCBNEW (5.1.2)-1) date 2019-10-01 23:09:42*
%MOMM*%
%LPD*%
G04 APERTURE LIST*
%ADD10C,0.076200*%
%ADD11C,0.200000*%
%ADD12C,0.120000*%
G04 APERTURE END LIST*
D10*
X27534809Y-39182523D02*
X27510619Y-39230904D01*
X27486428Y-39255095D01*
X27438047Y-39279285D01*
X27292904Y-39279285D01*
X27244523Y-39255095D01*
X27220333Y-39230904D01*
X27196142Y-39182523D01*
X27196142Y-39109952D01*
X27220333Y-39061571D01*
X27244523Y-39037380D01*
X27292904Y-39013190D01*
X27438047Y-39013190D01*
X27486428Y-39037380D01*
X27510619Y-39061571D01*
X27534809Y-39109952D01*
X27534809Y-39182523D01*
X27534809Y-38795476D02*
X27196142Y-38795476D01*
X27292904Y-38795476D02*
X27244523Y-38771285D01*
X27220333Y-38747095D01*
X27196142Y-38698714D01*
X27196142Y-38650333D01*
X27534809Y-27498523D02*
X27510619Y-27546904D01*
X27486428Y-27571095D01*
X27438047Y-27595285D01*
X27292904Y-27595285D01*
X27244523Y-27571095D01*
X27220333Y-27546904D01*
X27196142Y-27498523D01*
X27196142Y-27425952D01*
X27220333Y-27377571D01*
X27244523Y-27353380D01*
X27292904Y-27329190D01*
X27438047Y-27329190D01*
X27486428Y-27353380D01*
X27510619Y-27377571D01*
X27534809Y-27425952D01*
X27534809Y-27498523D01*
X27534809Y-27111476D02*
X27196142Y-27111476D01*
X27292904Y-27111476D02*
X27244523Y-27087285D01*
X27220333Y-27063095D01*
X27196142Y-27014714D01*
X27196142Y-26966333D01*
D11*
X27940000Y-44958000D02*
G75*
G02X30480000Y-44958000I1270000J0D01*
G01*
X34798000Y-44958000D02*
X30480000Y-44958000D01*
X34798000Y-23368000D02*
X34798000Y-44958000D01*
X23495000Y-23368000D02*
X34798000Y-23368000D01*
X23495000Y-44958000D02*
X27940000Y-44958000D01*
X23495000Y-23368000D02*
X23495000Y-44958000D01*
D12*
X29920000Y-29471252D02*
X29920000Y-28948748D01*
X28500000Y-29471252D02*
X28500000Y-28948748D01*
X28500000Y-41253748D02*
X28500000Y-41776252D01*
X29920000Y-41253748D02*
X29920000Y-41776252D01*
X28155000Y-38430000D02*
X28090000Y-38430000D01*
X30330000Y-38430000D02*
X30265000Y-38430000D01*
X28155000Y-35190000D02*
X28090000Y-35190000D01*
X30330000Y-35190000D02*
X30265000Y-35190000D01*
X28090000Y-35190000D02*
X28090000Y-38430000D01*
X30330000Y-35190000D02*
X30330000Y-38430000D01*
X30580000Y-25940000D02*
X30250000Y-25940000D01*
X30580000Y-32480000D02*
X30580000Y-25940000D01*
X30250000Y-32480000D02*
X30580000Y-32480000D01*
X27840000Y-25940000D02*
X28170000Y-25940000D01*
X27840000Y-32480000D02*
X27840000Y-25940000D01*
X28170000Y-32480000D02*
X27840000Y-32480000D01*
D10*
X27534809Y-29294666D02*
X27292904Y-29464000D01*
X27534809Y-29584952D02*
X27026809Y-29584952D01*
X27026809Y-29391428D01*
X27051000Y-29343047D01*
X27075190Y-29318857D01*
X27123571Y-29294666D01*
X27196142Y-29294666D01*
X27244523Y-29318857D01*
X27268714Y-29343047D01*
X27292904Y-29391428D01*
X27292904Y-29584952D01*
X27534809Y-28810857D02*
X27534809Y-29101142D01*
X27534809Y-28956000D02*
X27026809Y-28956000D01*
X27099380Y-29004380D01*
X27147761Y-29052761D01*
X27171952Y-29101142D01*
X31024285Y-30099000D02*
X30988000Y-30062714D01*
X30951714Y-29990142D01*
X30951714Y-29808714D01*
X30988000Y-29736142D01*
X31024285Y-29699857D01*
X31096857Y-29663571D01*
X31169428Y-29663571D01*
X31278285Y-29699857D01*
X31713714Y-30135285D01*
X31713714Y-29663571D01*
X31713714Y-29337000D02*
X30951714Y-29337000D01*
X31423428Y-29264428D02*
X31713714Y-29046714D01*
X31205714Y-29046714D02*
X31496000Y-29337000D01*
X30951714Y-28792714D02*
X30951714Y-28284714D01*
X31713714Y-28611285D01*
X27486428Y-41359666D02*
X27510619Y-41383857D01*
X27534809Y-41456428D01*
X27534809Y-41504809D01*
X27510619Y-41577380D01*
X27462238Y-41625761D01*
X27413857Y-41649952D01*
X27317095Y-41674142D01*
X27244523Y-41674142D01*
X27147761Y-41649952D01*
X27099380Y-41625761D01*
X27051000Y-41577380D01*
X27026809Y-41504809D01*
X27026809Y-41456428D01*
X27051000Y-41383857D01*
X27075190Y-41359666D01*
X27534809Y-40875857D02*
X27534809Y-41166142D01*
X27534809Y-41021000D02*
X27026809Y-41021000D01*
X27099380Y-41069380D01*
X27147761Y-41117761D01*
X27171952Y-41166142D01*
X30951714Y-40295285D02*
X30951714Y-40222714D01*
X30988000Y-40150142D01*
X31024285Y-40113857D01*
X31096857Y-40077571D01*
X31242000Y-40041285D01*
X31423428Y-40041285D01*
X31568571Y-40077571D01*
X31641142Y-40113857D01*
X31677428Y-40150142D01*
X31713714Y-40222714D01*
X31713714Y-40295285D01*
X31677428Y-40367857D01*
X31641142Y-40404142D01*
X31568571Y-40440428D01*
X31423428Y-40476714D01*
X31242000Y-40476714D01*
X31096857Y-40440428D01*
X31024285Y-40404142D01*
X30988000Y-40367857D01*
X30951714Y-40295285D01*
X31641142Y-39714714D02*
X31677428Y-39678428D01*
X31713714Y-39714714D01*
X31677428Y-39751000D01*
X31641142Y-39714714D01*
X31713714Y-39714714D01*
X31713714Y-38952714D02*
X31713714Y-39388142D01*
X31713714Y-39170428D02*
X30951714Y-39170428D01*
X31060571Y-39243000D01*
X31133142Y-39315571D01*
X31169428Y-39388142D01*
X31205714Y-38299571D02*
X31713714Y-38299571D01*
X31205714Y-38626142D02*
X31604857Y-38626142D01*
X31677428Y-38589857D01*
X31713714Y-38517285D01*
X31713714Y-38408428D01*
X31677428Y-38335857D01*
X31641142Y-38299571D01*
X27486428Y-36894666D02*
X27510619Y-36918857D01*
X27534809Y-36991428D01*
X27534809Y-37039809D01*
X27510619Y-37112380D01*
X27462238Y-37160761D01*
X27413857Y-37184952D01*
X27317095Y-37209142D01*
X27244523Y-37209142D01*
X27147761Y-37184952D01*
X27099380Y-37160761D01*
X27051000Y-37112380D01*
X27026809Y-37039809D01*
X27026809Y-36991428D01*
X27051000Y-36918857D01*
X27075190Y-36894666D01*
X27075190Y-36701142D02*
X27051000Y-36676952D01*
X27026809Y-36628571D01*
X27026809Y-36507619D01*
X27051000Y-36459238D01*
X27075190Y-36435047D01*
X27123571Y-36410857D01*
X27171952Y-36410857D01*
X27244523Y-36435047D01*
X27534809Y-36725333D01*
X27534809Y-36410857D01*
X27534809Y-25484666D02*
X27292904Y-25654000D01*
X27534809Y-25774952D02*
X27026809Y-25774952D01*
X27026809Y-25581428D01*
X27051000Y-25533047D01*
X27075190Y-25508857D01*
X27123571Y-25484666D01*
X27196142Y-25484666D01*
X27244523Y-25508857D01*
X27268714Y-25533047D01*
X27292904Y-25581428D01*
X27292904Y-25774952D01*
X27075190Y-25291142D02*
X27051000Y-25266952D01*
X27026809Y-25218571D01*
X27026809Y-25097619D01*
X27051000Y-25049238D01*
X27075190Y-25025047D01*
X27123571Y-25000857D01*
X27171952Y-25000857D01*
X27244523Y-25025047D01*
X27534809Y-25315333D01*
X27534809Y-25000857D01*
M02*
