G04 #@! TF.GenerationSoftware,KiCad,Pcbnew,(5.1.2)-1*
G04 #@! TF.CreationDate,2019-10-01T23:09:42-06:00*
G04 #@! TF.ProjectId,signalinkUniversalJumperModule,7369676e-616c-4696-9e6b-556e69766572,rev?*
G04 #@! TF.SameCoordinates,Original*
G04 #@! TF.FileFunction,Copper,L1,Top*
G04 #@! TF.FilePolarity,Positive*
%FSLAX46Y46*%
G04 Gerber Fmt 4.6, Leading zero omitted, Abs format (unit mm)*
G04 Created by KiCad (PCBNEW (5.1.2)-1) date 2019-10-01 23:09:42*
%MOMM*%
%LPD*%
G04 APERTURE LIST*
%ADD10O,1.700000X1.700000*%
%ADD11C,1.700000*%
%ADD12C,0.100000*%
%ADD13C,1.150000*%
%ADD14C,1.600000*%
%ADD15O,1.600000X1.600000*%
%ADD16C,0.254000*%
G04 APERTURE END LIST*
D10*
X33020000Y-25400000D03*
X33020000Y-27940000D03*
X33020000Y-30480000D03*
X33020000Y-33020000D03*
X33020000Y-35560000D03*
X33020000Y-38100000D03*
X33020000Y-40640000D03*
D11*
X33020000Y-43180000D03*
D10*
X25400000Y-43180000D03*
X25400000Y-40640000D03*
X25400000Y-38100000D03*
X25400000Y-35560000D03*
X25400000Y-33020000D03*
X25400000Y-30480000D03*
X25400000Y-27940000D03*
D11*
X25400000Y-25400000D03*
D12*
G36*
X29684505Y-27611204D02*
G01*
X29708773Y-27614804D01*
X29732572Y-27620765D01*
X29755671Y-27629030D01*
X29777850Y-27639520D01*
X29798893Y-27652132D01*
X29818599Y-27666747D01*
X29836777Y-27683223D01*
X29853253Y-27701401D01*
X29867868Y-27721107D01*
X29880480Y-27742150D01*
X29890970Y-27764329D01*
X29899235Y-27787428D01*
X29905196Y-27811227D01*
X29908796Y-27835495D01*
X29910000Y-27859999D01*
X29910000Y-28510001D01*
X29908796Y-28534505D01*
X29905196Y-28558773D01*
X29899235Y-28582572D01*
X29890970Y-28605671D01*
X29880480Y-28627850D01*
X29867868Y-28648893D01*
X29853253Y-28668599D01*
X29836777Y-28686777D01*
X29818599Y-28703253D01*
X29798893Y-28717868D01*
X29777850Y-28730480D01*
X29755671Y-28740970D01*
X29732572Y-28749235D01*
X29708773Y-28755196D01*
X29684505Y-28758796D01*
X29660001Y-28760000D01*
X28759999Y-28760000D01*
X28735495Y-28758796D01*
X28711227Y-28755196D01*
X28687428Y-28749235D01*
X28664329Y-28740970D01*
X28642150Y-28730480D01*
X28621107Y-28717868D01*
X28601401Y-28703253D01*
X28583223Y-28686777D01*
X28566747Y-28668599D01*
X28552132Y-28648893D01*
X28539520Y-28627850D01*
X28529030Y-28605671D01*
X28520765Y-28582572D01*
X28514804Y-28558773D01*
X28511204Y-28534505D01*
X28510000Y-28510001D01*
X28510000Y-27859999D01*
X28511204Y-27835495D01*
X28514804Y-27811227D01*
X28520765Y-27787428D01*
X28529030Y-27764329D01*
X28539520Y-27742150D01*
X28552132Y-27721107D01*
X28566747Y-27701401D01*
X28583223Y-27683223D01*
X28601401Y-27666747D01*
X28621107Y-27652132D01*
X28642150Y-27639520D01*
X28664329Y-27629030D01*
X28687428Y-27620765D01*
X28711227Y-27614804D01*
X28735495Y-27611204D01*
X28759999Y-27610000D01*
X29660001Y-27610000D01*
X29684505Y-27611204D01*
X29684505Y-27611204D01*
G37*
D13*
X29210000Y-28185000D03*
D12*
G36*
X29684505Y-29661204D02*
G01*
X29708773Y-29664804D01*
X29732572Y-29670765D01*
X29755671Y-29679030D01*
X29777850Y-29689520D01*
X29798893Y-29702132D01*
X29818599Y-29716747D01*
X29836777Y-29733223D01*
X29853253Y-29751401D01*
X29867868Y-29771107D01*
X29880480Y-29792150D01*
X29890970Y-29814329D01*
X29899235Y-29837428D01*
X29905196Y-29861227D01*
X29908796Y-29885495D01*
X29910000Y-29909999D01*
X29910000Y-30560001D01*
X29908796Y-30584505D01*
X29905196Y-30608773D01*
X29899235Y-30632572D01*
X29890970Y-30655671D01*
X29880480Y-30677850D01*
X29867868Y-30698893D01*
X29853253Y-30718599D01*
X29836777Y-30736777D01*
X29818599Y-30753253D01*
X29798893Y-30767868D01*
X29777850Y-30780480D01*
X29755671Y-30790970D01*
X29732572Y-30799235D01*
X29708773Y-30805196D01*
X29684505Y-30808796D01*
X29660001Y-30810000D01*
X28759999Y-30810000D01*
X28735495Y-30808796D01*
X28711227Y-30805196D01*
X28687428Y-30799235D01*
X28664329Y-30790970D01*
X28642150Y-30780480D01*
X28621107Y-30767868D01*
X28601401Y-30753253D01*
X28583223Y-30736777D01*
X28566747Y-30718599D01*
X28552132Y-30698893D01*
X28539520Y-30677850D01*
X28529030Y-30655671D01*
X28520765Y-30632572D01*
X28514804Y-30608773D01*
X28511204Y-30584505D01*
X28510000Y-30560001D01*
X28510000Y-29909999D01*
X28511204Y-29885495D01*
X28514804Y-29861227D01*
X28520765Y-29837428D01*
X28529030Y-29814329D01*
X28539520Y-29792150D01*
X28552132Y-29771107D01*
X28566747Y-29751401D01*
X28583223Y-29733223D01*
X28601401Y-29716747D01*
X28621107Y-29702132D01*
X28642150Y-29689520D01*
X28664329Y-29679030D01*
X28687428Y-29670765D01*
X28711227Y-29664804D01*
X28735495Y-29661204D01*
X28759999Y-29660000D01*
X29660001Y-29660000D01*
X29684505Y-29661204D01*
X29684505Y-29661204D01*
G37*
D13*
X29210000Y-30235000D03*
D12*
G36*
X29684505Y-41966204D02*
G01*
X29708773Y-41969804D01*
X29732572Y-41975765D01*
X29755671Y-41984030D01*
X29777850Y-41994520D01*
X29798893Y-42007132D01*
X29818599Y-42021747D01*
X29836777Y-42038223D01*
X29853253Y-42056401D01*
X29867868Y-42076107D01*
X29880480Y-42097150D01*
X29890970Y-42119329D01*
X29899235Y-42142428D01*
X29905196Y-42166227D01*
X29908796Y-42190495D01*
X29910000Y-42214999D01*
X29910000Y-42865001D01*
X29908796Y-42889505D01*
X29905196Y-42913773D01*
X29899235Y-42937572D01*
X29890970Y-42960671D01*
X29880480Y-42982850D01*
X29867868Y-43003893D01*
X29853253Y-43023599D01*
X29836777Y-43041777D01*
X29818599Y-43058253D01*
X29798893Y-43072868D01*
X29777850Y-43085480D01*
X29755671Y-43095970D01*
X29732572Y-43104235D01*
X29708773Y-43110196D01*
X29684505Y-43113796D01*
X29660001Y-43115000D01*
X28759999Y-43115000D01*
X28735495Y-43113796D01*
X28711227Y-43110196D01*
X28687428Y-43104235D01*
X28664329Y-43095970D01*
X28642150Y-43085480D01*
X28621107Y-43072868D01*
X28601401Y-43058253D01*
X28583223Y-43041777D01*
X28566747Y-43023599D01*
X28552132Y-43003893D01*
X28539520Y-42982850D01*
X28529030Y-42960671D01*
X28520765Y-42937572D01*
X28514804Y-42913773D01*
X28511204Y-42889505D01*
X28510000Y-42865001D01*
X28510000Y-42214999D01*
X28511204Y-42190495D01*
X28514804Y-42166227D01*
X28520765Y-42142428D01*
X28529030Y-42119329D01*
X28539520Y-42097150D01*
X28552132Y-42076107D01*
X28566747Y-42056401D01*
X28583223Y-42038223D01*
X28601401Y-42021747D01*
X28621107Y-42007132D01*
X28642150Y-41994520D01*
X28664329Y-41984030D01*
X28687428Y-41975765D01*
X28711227Y-41969804D01*
X28735495Y-41966204D01*
X28759999Y-41965000D01*
X29660001Y-41965000D01*
X29684505Y-41966204D01*
X29684505Y-41966204D01*
G37*
D13*
X29210000Y-42540000D03*
D12*
G36*
X29684505Y-39916204D02*
G01*
X29708773Y-39919804D01*
X29732572Y-39925765D01*
X29755671Y-39934030D01*
X29777850Y-39944520D01*
X29798893Y-39957132D01*
X29818599Y-39971747D01*
X29836777Y-39988223D01*
X29853253Y-40006401D01*
X29867868Y-40026107D01*
X29880480Y-40047150D01*
X29890970Y-40069329D01*
X29899235Y-40092428D01*
X29905196Y-40116227D01*
X29908796Y-40140495D01*
X29910000Y-40164999D01*
X29910000Y-40815001D01*
X29908796Y-40839505D01*
X29905196Y-40863773D01*
X29899235Y-40887572D01*
X29890970Y-40910671D01*
X29880480Y-40932850D01*
X29867868Y-40953893D01*
X29853253Y-40973599D01*
X29836777Y-40991777D01*
X29818599Y-41008253D01*
X29798893Y-41022868D01*
X29777850Y-41035480D01*
X29755671Y-41045970D01*
X29732572Y-41054235D01*
X29708773Y-41060196D01*
X29684505Y-41063796D01*
X29660001Y-41065000D01*
X28759999Y-41065000D01*
X28735495Y-41063796D01*
X28711227Y-41060196D01*
X28687428Y-41054235D01*
X28664329Y-41045970D01*
X28642150Y-41035480D01*
X28621107Y-41022868D01*
X28601401Y-41008253D01*
X28583223Y-40991777D01*
X28566747Y-40973599D01*
X28552132Y-40953893D01*
X28539520Y-40932850D01*
X28529030Y-40910671D01*
X28520765Y-40887572D01*
X28514804Y-40863773D01*
X28511204Y-40839505D01*
X28510000Y-40815001D01*
X28510000Y-40164999D01*
X28511204Y-40140495D01*
X28514804Y-40116227D01*
X28520765Y-40092428D01*
X28529030Y-40069329D01*
X28539520Y-40047150D01*
X28552132Y-40026107D01*
X28566747Y-40006401D01*
X28583223Y-39988223D01*
X28601401Y-39971747D01*
X28621107Y-39957132D01*
X28642150Y-39944520D01*
X28664329Y-39934030D01*
X28687428Y-39925765D01*
X28711227Y-39919804D01*
X28735495Y-39916204D01*
X28759999Y-39915000D01*
X29660001Y-39915000D01*
X29684505Y-39916204D01*
X29684505Y-39916204D01*
G37*
D13*
X29210000Y-40490000D03*
D14*
X29210000Y-38060000D03*
X29210000Y-35560000D03*
D15*
X29210000Y-25400000D03*
D14*
X29210000Y-33020000D03*
D16*
X31115000Y-37465000D02*
X29210000Y-35560000D01*
X29210000Y-40640000D02*
X31115000Y-38735000D01*
X31115000Y-38735000D02*
X31115000Y-37465000D01*
X29210000Y-34506000D02*
X29210000Y-33020000D01*
X29210000Y-35560000D02*
X29210000Y-34506000D01*
X29210000Y-30085000D02*
X29210000Y-33020000D01*
X29210000Y-35560000D02*
X33020000Y-35560000D01*
X27980000Y-38060000D02*
X29210000Y-38060000D01*
X25400000Y-40640000D02*
X27980000Y-38060000D01*
X27300000Y-42540000D02*
X29210000Y-42540000D01*
X25400000Y-40640000D02*
X27300000Y-42540000D01*
X31120000Y-42540000D02*
X33020000Y-40640000D01*
X29210000Y-42540000D02*
X31120000Y-42540000D01*
X29210000Y-25400000D02*
X29210000Y-28335000D01*
X25400000Y-38100000D02*
X27305000Y-36195000D01*
X27305000Y-29290000D02*
X27305000Y-36195000D01*
X28410000Y-28185000D02*
X27305000Y-29290000D01*
X29210000Y-28185000D02*
X28410000Y-28185000D01*
M02*
